<svg xmlns="http://www.w3.org/2000/svg" width="212" height="40" viewBox="0 0 212 40" fill="none">
<path d="M15.4129 11.3867C15.7622 11.3867 15.9369 11.3867 16.0704 11.4545C16.1877 11.5141 16.2831 11.6093 16.343 11.7263C16.4109 11.8593 16.4109 12.0334 16.4109 12.3817V27.5881C16.4109 27.9364 16.4109 28.1105 16.343 28.2435C16.2831 28.3605 16.1877 28.4557 16.0704 28.5153C15.9369 28.5831 15.7622 28.5831 15.4129 28.5831H12.8637C12.6912 28.5831 12.605 28.5831 12.5251 28.5616C12.4544 28.5425 12.3875 28.5112 12.3277 28.469C12.2601 28.4214 12.2051 28.3552 12.0951 28.2228L5.31035 20.0577C5.14721 19.8614 5.06565 19.7632 4.99436 19.7529C4.93263 19.744 4.87049 19.7663 4.82867 19.8124C4.78036 19.8657 4.78036 19.9932 4.78036 20.2481V27.5881C4.78036 27.9364 4.78036 28.1105 4.71238 28.2435C4.65257 28.3605 4.55715 28.4557 4.43978 28.5153C4.30634 28.5831 4.13167 28.5831 3.78232 28.5831H0.998042C0.648694 28.5831 0.47402 28.5831 0.340587 28.5153C0.223217 28.4557 0.127791 28.3605 0.0679875 28.2435C0 28.1105 0 27.9364 0 27.5881V12.3817C0 12.0334 0 11.8593 0.0679875 11.7263C0.127791 11.6093 0.223217 11.5141 0.340587 11.4545C0.47402 11.3867 0.648694 11.3867 0.998041 11.3867H3.54726C3.71972 11.3867 3.80595 11.3867 3.88581 11.4082C3.95657 11.4273 4.02341 11.4586 4.08326 11.5008C4.15081 11.5484 4.20582 11.6146 4.31583 11.747L11.1006 19.9121C11.2637 20.1084 11.3453 20.2066 11.4166 20.2169C11.4783 20.2258 11.5404 20.2035 11.5823 20.1574C11.6306 20.1041 11.6306 19.9766 11.6306 19.7217V12.3817C11.6306 12.0334 11.6306 11.8593 11.6986 11.7263C11.7584 11.6093 11.8538 11.5141 11.9712 11.4545C12.1046 11.3867 12.2793 11.3867 12.6286 11.3867H15.4129Z" fill="black"/>
<path d="M24.765 15.1454C24.6602 15.1454 24.6078 15.1454 24.5678 15.1657C24.5326 15.1836 24.504 15.2121 24.486 15.2472C24.4656 15.2871 24.4656 15.3394 24.4656 15.4439V18.6301C24.4656 18.7345 24.4656 18.7868 24.486 18.8267C24.504 18.8618 24.5326 18.8903 24.5678 18.9082C24.6078 18.9286 24.6602 18.9286 24.765 18.9286H31.0817C31.431 18.9286 31.6057 18.9286 31.7391 18.9963C31.8565 19.056 31.9519 19.1511 32.0117 19.2681C32.0797 19.4011 32.0797 19.5753 32.0797 19.9236V21.6922C32.0797 22.0405 32.0797 22.2146 32.0117 22.3476C31.9519 22.4647 31.8565 22.5598 31.7391 22.6194C31.6057 22.6872 31.431 22.6872 31.0817 22.6872H24.765C24.6602 22.6872 24.6078 22.6872 24.5678 22.7075C24.5326 22.7254 24.504 22.754 24.486 22.7891C24.4656 22.829 24.4656 22.8812 24.4656 22.9857V27.5881C24.4656 27.9364 24.4656 28.1105 24.3976 28.2435C24.3378 28.3605 24.2424 28.4557 24.125 28.5153C23.9916 28.5831 23.8169 28.5831 23.4676 28.5831H20.5847C20.2354 28.5831 20.0607 28.5831 19.9273 28.5153C19.8099 28.4557 19.7145 28.3605 19.6547 28.2435C19.5867 28.1105 19.5867 27.9364 19.5867 27.5881V12.3817C19.5867 12.0334 19.5867 11.8593 19.6547 11.7263C19.7145 11.6093 19.8099 11.5141 19.9273 11.4545C20.0607 11.3867 20.2354 11.3867 20.5847 11.3867H32.1166C32.4659 11.3867 32.6406 11.3867 32.7741 11.4545C32.8914 11.5141 32.9868 11.6093 33.0466 11.7263C33.1146 11.8593 33.1146 12.0334 33.1146 12.3817V14.1503C33.1146 14.4986 33.1146 14.6728 33.0466 14.8058C32.9868 14.9228 32.8914 15.018 32.7741 15.0776C32.6406 15.1454 32.4659 15.1454 32.1166 15.1454H24.765Z" fill="black"/>
<path fill-rule="evenodd" clip-rule="evenodd" d="M48.949 2.98449C49.4628 2.92987 49.835 2.47031 49.7802 1.95803C49.7254 1.44575 49.2645 1.07474 48.7506 1.12936L46.8397 1.33247C45.8607 1.43653 45.0755 1.51999 44.4378 1.63525C43.7808 1.754 43.2178 1.91632 42.6949 2.2085C41.8458 2.68286 41.142 3.37798 40.6585 4.21978C40.3607 4.73835 40.193 5.29797 40.0683 5.95137C39.9473 6.58554 39.8571 7.36684 39.7446 8.34075L39.7398 8.3827L39.5521 10.243C39.5004 10.7556 39.8753 11.2129 40.3895 11.2645C40.9036 11.316 41.3624 10.9423 41.4141 10.4297L41.6003 8.58276C41.7174 7.56906 41.8003 6.85775 41.9067 6.29998C42.0111 5.75257 42.1277 5.41627 42.2825 5.1468C42.5974 4.59839 43.0561 4.14529 43.6097 3.83599C43.8819 3.68394 44.2208 3.57053 44.7716 3.47097C45.334 3.36933 46.051 3.29253 47.0735 3.18385L48.949 2.98449ZM67.1523 1.95805C67.0975 2.47033 67.4696 2.92989 67.9835 2.98451L69.859 3.18387C70.8815 3.29255 71.5985 3.36934 72.1609 3.47099C72.7117 3.57055 73.0506 3.68396 73.3228 3.836C73.8764 4.14531 74.335 4.59841 74.65 5.14682C74.8048 5.41629 74.9214 5.75259 75.0258 6.3C75.1322 6.85777 75.2151 7.56908 75.3321 8.58278L75.5184 10.4297C75.5701 10.9423 76.0289 11.3161 76.543 11.2645C77.0572 11.213 77.4321 10.7556 77.3804 10.243L77.1927 8.38272L77.1879 8.34077C77.0754 7.36686 76.9852 6.58556 76.8642 5.95139C76.7395 5.29799 76.5718 4.73837 76.274 4.2198C75.7905 3.378 75.0866 2.68288 74.2376 2.20851C73.7147 1.91634 73.1517 1.75402 72.4947 1.63527C71.857 1.52 71.0718 1.43655 70.0928 1.33249L68.1819 1.12938C67.668 1.07476 67.2071 1.44577 67.1523 1.95805ZM67.1523 38.0146C67.0975 37.5024 67.4696 37.0428 67.9835 36.9882L69.859 36.7888C70.8815 36.6801 71.5985 36.6034 72.1609 36.5017C72.7117 36.4021 73.0506 36.2887 73.3228 36.1367C73.8764 35.8274 74.335 35.3743 74.65 34.8259C74.8048 34.5564 74.9214 34.2201 75.0258 33.6727C75.1322 33.1149 75.2151 32.4036 75.3321 31.3899L75.5184 29.543C75.5701 29.0304 76.0289 28.6566 76.543 28.7082C77.0572 28.7597 77.4321 29.2171 77.3804 29.7297L77.1927 31.59L77.1879 31.6319C77.0754 32.6058 76.9852 33.3871 76.8642 34.0213C76.7395 34.6747 76.5718 35.2343 76.274 35.7529C75.7905 36.5947 75.0866 37.2898 74.2376 37.7642C73.7147 38.0564 73.1517 38.2187 72.4947 38.3374C71.857 38.4527 71.0718 38.5361 70.0928 38.6402L68.1819 38.8433C67.668 38.8979 67.2071 38.5269 67.1523 38.0146ZM49.7802 38.0146C49.835 37.5024 49.4629 37.0428 48.949 36.9882L47.0735 36.7888C46.051 36.6801 45.334 36.6034 44.7716 36.5017C44.2208 36.4021 43.8819 36.2887 43.6097 36.1367C43.0562 35.8274 42.5975 35.3743 42.2825 34.8259C42.1277 34.5564 42.0111 34.2201 41.9067 33.6727C41.8003 33.1149 41.7175 32.4036 41.6004 31.3899L41.4141 29.543C41.3624 29.0304 40.9037 28.6566 40.3895 28.7082C39.8753 28.7597 39.5004 29.2171 39.5521 29.7297L39.7398 31.59L39.7446 31.6319C39.8571 32.6058 39.9474 33.3871 40.0683 34.0213C40.193 34.6747 40.3607 35.2343 40.6585 35.7529C41.142 36.5947 41.8459 37.2898 42.6949 37.7642C43.2178 38.0564 43.7808 38.2187 44.4378 38.3374C45.0755 38.4527 45.8607 38.5361 46.8396 38.6402L46.8397 38.6402H46.8397L48.7506 38.8433C49.2645 38.8979 49.7254 38.5269 49.7802 38.0146ZM49.2696 12.7925C48.825 12.7925 48.4645 13.1529 48.4645 13.5976V26.6471C48.4645 27.0917 48.825 27.4522 49.2696 27.4522H51.8187C52.2633 27.4522 52.6238 27.0917 52.6238 26.6471V13.5976C52.6238 13.1529 52.2633 12.7925 51.8187 12.7925H49.2696ZM56.1614 12.7925C55.7168 12.7925 55.3563 13.1529 55.3563 13.5976V26.6471C55.3563 27.0917 55.7168 27.4522 56.1614 27.4522H62.3094C63.9199 27.4522 65.3483 27.152 66.5947 26.5516C67.841 25.9513 68.8073 25.0996 69.4935 23.9967C70.1797 22.8937 70.5228 21.6022 70.5228 20.1223C70.5228 18.6424 70.1797 17.3509 69.4935 16.248C68.8073 15.145 67.841 14.2933 66.5947 13.693C65.3483 13.0926 63.9199 12.7925 62.3094 12.7925H56.1614ZM65.1662 23.0752C64.41 23.7872 63.4017 24.1433 62.1413 24.1433H59.7571C59.6237 24.1433 59.5156 24.0351 59.5156 23.9017V16.3429C59.5156 16.2095 59.6237 16.1014 59.7571 16.1014H62.1413C63.4017 16.1014 64.41 16.4574 65.1662 17.1694C65.9365 17.8815 66.3216 18.8658 66.3216 20.1223C66.3216 21.3789 65.9365 22.3631 65.1662 23.0752Z" fill="url(#paint0_linear_68367_73812)"/>
<path d="M210.192 15.6722C210.483 15.6722 210.719 15.9079 210.719 16.1985V17.8364C210.719 18.1271 210.483 18.3628 210.192 18.3628H203.468C203.177 18.3628 202.941 18.1271 202.941 17.8364V16.1985C202.941 15.9079 203.177 15.6722 203.468 15.6722H210.192ZM204.707 13.1044C204.707 12.8138 204.943 12.5781 205.233 12.5781H207.763C208.053 12.5781 208.289 12.8138 208.289 13.1044V24.6182C208.289 24.9489 208.339 25.2068 208.44 25.3918C208.541 25.5711 208.681 25.6972 208.861 25.7701C209.046 25.843 209.259 25.8794 209.5 25.8794C209.668 25.8794 209.836 25.8654 210.004 25.8374C210.219 25.7944 210.427 25.9329 210.472 26.1473L210.855 27.9586C210.911 28.2242 210.756 28.4878 210.492 28.5518C210.402 28.5738 210.303 28.5966 210.197 28.6204C209.872 28.6989 209.477 28.7465 209.012 28.7633C208.149 28.797 207.392 28.682 206.742 28.4186C206.097 28.1552 205.595 27.746 205.237 27.191C204.878 26.6361 204.701 25.9355 204.707 25.0891V13.1044Z" fill="black"/>
<path d="M197.925 28.5869C197.634 28.5869 197.399 28.3512 197.399 28.0606V16.1987C197.399 15.908 197.634 15.6724 197.925 15.6724H200.454C200.745 15.6724 200.98 15.908 200.98 16.1987V28.0606C200.98 28.3512 200.745 28.5869 200.454 28.5869H197.925ZM199.198 14.0076C198.665 14.0076 198.209 13.831 197.827 13.4779C197.452 13.1192 197.264 12.6904 197.264 12.1915C197.264 11.6982 197.452 11.275 197.827 10.9219C198.209 10.5632 198.665 10.3838 199.198 10.3838C199.73 10.3838 200.185 10.5632 200.56 10.9219C200.941 11.275 201.132 11.6982 201.132 12.1915C201.132 12.6904 200.941 13.1192 200.56 13.4779C200.185 13.831 199.73 14.0076 199.198 14.0076Z" fill="black"/>
<path d="M180.859 28.5875C180.568 28.5875 180.333 28.3519 180.333 28.0612V11.8945C180.333 11.6038 180.568 11.3682 180.859 11.3682H183.447C183.737 11.3682 183.973 11.6038 183.973 11.8945V18.8065C183.973 18.8916 184.042 18.9605 184.127 18.9605C184.173 18.9605 184.217 18.9397 184.246 18.9039L190.239 11.5617C190.339 11.4392 190.488 11.3682 190.647 11.3682H193.641C194.086 11.3682 194.33 11.8873 194.046 12.2303L188.623 18.7736C188.473 18.954 188.461 19.2116 188.593 19.4054L194.277 27.7653C194.515 28.1147 194.264 28.5875 193.842 28.5875H190.763C190.587 28.5875 190.422 28.4995 190.325 28.353L186.158 22.1C185.962 21.8057 185.537 21.7847 185.313 22.0583L184.092 23.5487C184.015 23.6427 183.973 23.7606 183.973 23.8822V28.0612C183.973 28.3519 183.737 28.5875 183.447 28.5875H180.859Z" fill="black"/>
<path d="M168.604 33.4303C168.15 33.4303 167.724 33.3939 167.326 33.321C167.136 33.2884 166.961 33.2513 166.803 33.2095C166.541 33.1405 166.41 32.8629 166.488 32.6039L167.005 30.8927C167.089 30.6136 167.384 30.4602 167.669 30.5188C167.891 30.5644 168.099 30.5904 168.293 30.5969C168.635 30.6081 168.929 30.5296 169.175 30.3614C169.428 30.1933 169.632 29.9074 169.789 29.5038L169.93 29.1374C169.975 29.0211 169.977 28.8928 169.936 28.7752L165.611 16.3725C165.491 16.0304 165.745 15.6729 166.108 15.6729H168.735C168.971 15.6729 169.178 15.8295 169.242 16.0564L171.789 25.0921C171.8 25.1305 171.835 25.157 171.874 25.157C171.914 25.157 171.949 25.1306 171.96 25.0923L174.532 16.0551C174.596 15.8289 174.803 15.6729 175.038 15.6729H177.69C178.053 15.6729 178.307 16.0311 178.187 16.3734L173.413 29.9831C173.172 30.6781 172.844 31.2835 172.429 31.7992C172.02 32.3205 171.502 32.7213 170.874 33.0015C170.246 33.2874 169.489 33.4303 168.604 33.4303Z" fill="black"/>
<path d="M163.533 15.6722C163.823 15.6722 164.059 15.9079 164.059 16.1985V17.8364C164.059 18.1271 163.823 18.3628 163.533 18.3628H156.808C156.517 18.3628 156.282 18.1271 156.282 17.8364V16.1985C156.282 15.9079 156.517 15.6722 156.808 15.6722H163.533ZM158.047 13.1044C158.047 12.8138 158.283 12.5781 158.574 12.5781H161.103C161.394 12.5781 161.629 12.8138 161.629 13.1044V24.6182C161.629 24.9489 161.68 25.2068 161.78 25.3918C161.881 25.5711 162.022 25.6972 162.201 25.7701C162.386 25.843 162.599 25.8794 162.84 25.8794C163.008 25.8794 163.176 25.8654 163.344 25.8374C163.559 25.7944 163.767 25.9329 163.813 26.1473L164.195 27.9586C164.252 28.2242 164.096 28.4878 163.832 28.5518C163.742 28.5738 163.644 28.5966 163.538 28.6204C163.213 28.6989 162.817 28.7465 162.352 28.7633C161.489 28.797 160.732 28.682 160.082 28.4186C159.438 28.1552 158.936 27.746 158.577 27.191C158.218 26.6361 158.042 25.9355 158.047 25.0891V13.1044Z" fill="black"/>
<path d="M151.265 28.5869C150.975 28.5869 150.739 28.3512 150.739 28.0606V16.1987C150.739 15.908 150.975 15.6724 151.265 15.6724H153.794C154.085 15.6724 154.321 15.908 154.321 16.1987V28.0606C154.321 28.3512 154.085 28.5869 153.794 28.5869H151.265ZM152.538 14.0076C152.006 14.0076 151.549 13.831 151.168 13.4779C150.792 13.1192 150.604 12.6904 150.604 12.1915C150.604 11.6982 150.792 11.275 151.168 10.9219C151.549 10.5632 152.006 10.3838 152.538 10.3838C153.071 10.3838 153.525 10.5632 153.9 10.9219C154.282 11.275 154.472 11.6982 154.472 12.1915C154.472 12.6904 154.282 13.1192 153.9 13.4779C153.525 13.831 153.071 14.0076 152.538 14.0076Z" fill="black"/>
<path d="M147.879 15.6722C148.17 15.6722 148.406 15.9079 148.406 16.1985V17.8364C148.406 18.1271 148.17 18.3628 147.879 18.3628H141.155C140.864 18.3628 140.628 18.1271 140.628 17.8364V16.1985C140.628 15.9079 140.864 15.6722 141.155 15.6722H147.879ZM142.394 13.1044C142.394 12.8138 142.63 12.5781 142.92 12.5781H145.45C145.74 12.5781 145.976 12.8138 145.976 13.1044V24.6182C145.976 24.9489 146.026 25.2068 146.127 25.3918C146.228 25.5711 146.368 25.6972 146.548 25.7701C146.733 25.843 146.946 25.8794 147.187 25.8794C147.355 25.8794 147.523 25.8654 147.691 25.8374C147.906 25.7944 148.114 25.9329 148.159 26.1473L148.542 27.9586C148.598 28.2242 148.443 28.4878 148.179 28.5518C148.089 28.5738 147.99 28.5966 147.884 28.6204C147.559 28.6989 147.164 28.7465 146.699 28.7633C145.836 28.797 145.079 28.682 144.429 28.4186C143.784 28.1552 143.283 27.746 142.924 27.191C142.565 26.6361 142.388 25.9355 142.394 25.0891V13.1044Z" fill="black"/>
<path d="M130.39 21.1214V28.0613C130.39 28.3519 130.154 28.5876 129.864 28.5876H127.334C127.044 28.5876 126.808 28.3519 126.808 28.0613V16.1994C126.808 15.9087 127.044 15.673 127.334 15.673H129.695C129.986 15.673 130.222 15.9087 130.222 16.1994V17.862C130.222 17.9115 130.262 17.9516 130.311 17.9516C130.348 17.9516 130.382 17.9285 130.395 17.894C130.684 17.17 131.155 16.5951 131.811 16.1691C132.483 15.7263 133.299 15.5049 134.257 15.5049C135.154 15.5049 135.936 15.7011 136.603 16.0934C137.27 16.4858 137.789 17.0463 138.159 17.775C138.529 18.4981 138.714 19.3613 138.714 20.3646V28.0613C138.714 28.3519 138.478 28.5876 138.187 28.5876H135.658C135.368 28.5876 135.132 28.3519 135.132 28.0613V21.0036C135.138 20.2133 134.936 19.5967 134.527 19.1539C134.117 18.7055 133.554 18.4813 132.837 18.4813C132.355 18.4813 131.929 18.585 131.559 18.7924C131.194 18.9998 130.908 19.3024 130.701 19.7004C130.499 20.0928 130.395 20.5664 130.39 21.1214Z" fill="black"/>
<path d="M118.543 28.8398C117.215 28.8398 116.071 28.5708 115.113 28.0326C114.16 27.4889 113.425 26.721 112.91 25.7289C112.394 24.7311 112.136 23.5512 112.136 22.1892C112.136 20.8607 112.394 19.6948 112.91 18.6915C113.425 17.6881 114.151 16.9062 115.087 16.3457C116.029 15.7851 117.133 15.5049 118.4 15.5049C119.252 15.5049 120.045 15.6422 120.78 15.9169C121.519 16.1859 122.164 16.5923 122.713 17.136C123.268 17.6797 123.7 18.3636 124.008 19.1875C124.316 20.0059 124.471 20.9644 124.471 22.063V22.5204C124.471 22.8111 124.235 23.0468 123.944 23.0468H114.092C113.801 23.0468 113.566 22.8111 113.566 22.5204V21.3534C113.566 21.0627 113.801 20.8271 114.092 20.8271H120.573C120.863 20.8271 121.105 20.5897 121.057 20.303C121.006 19.9962 120.908 19.7141 120.763 19.4566C120.539 19.0586 120.227 18.7475 119.829 18.5233C119.437 18.2935 118.98 18.1786 118.459 18.1786C117.915 18.1786 117.433 18.3047 117.013 18.5569C116.598 18.8036 116.273 19.1371 116.037 19.5575C115.802 19.9723 115.682 20.4347 115.676 20.9448V23.0552C115.676 23.6942 115.794 24.2463 116.029 24.7115C116.27 25.1768 116.609 25.5355 117.046 25.7877C117.484 26.04 118.002 26.1661 118.602 26.1661C119 26.1661 119.364 26.11 119.695 25.9979C120.026 25.8858 120.309 25.7177 120.544 25.4935C120.689 25.3552 120.813 25.1977 120.916 25.0211C121.032 24.821 121.24 24.6799 121.471 24.6951L123.789 24.8481C124.109 24.8692 124.338 25.1701 124.233 25.4729C124.041 26.0293 123.75 26.5294 123.361 26.9733C122.845 27.5618 122.178 28.0214 121.36 28.3521C120.547 28.6773 119.608 28.8398 118.543 28.8398Z" fill="black"/>
<path d="M102.364 28.7977C101.383 28.7977 100.495 28.5455 99.6988 28.041C98.9085 27.5309 98.2807 26.7826 97.8154 25.7961C97.3558 24.804 97.126 23.5876 97.126 22.1471C97.126 20.6673 97.3642 19.4369 97.8406 18.456C98.3171 17.4695 98.9505 16.7324 99.7408 16.2447C100.537 15.7515 101.408 15.5048 102.356 15.5048C103.079 15.5048 103.681 15.6282 104.163 15.8748C104.651 16.1158 105.043 16.4185 105.34 16.7828C105.632 17.1282 105.856 17.4683 106.012 17.8033C106.023 17.8269 106.047 17.8422 106.073 17.8422C106.11 17.8422 106.139 17.8125 106.139 17.7758V11.8945C106.139 11.6038 106.375 11.3682 106.666 11.3682H109.186C109.477 11.3682 109.713 11.6038 109.713 11.8945V28.0612C109.713 28.3519 109.477 28.5875 109.186 28.5875H106.708C106.417 28.5875 106.181 28.3519 106.181 28.0612V26.6117C106.181 26.5606 106.14 26.5192 106.089 26.5192C106.053 26.5192 106.02 26.54 106.005 26.5722C105.838 26.913 105.608 27.2513 105.315 27.587C105.013 27.9345 104.617 28.2232 104.13 28.453C103.648 28.6828 103.059 28.7977 102.364 28.7977ZM103.499 25.9475C104.077 25.9475 104.564 25.7905 104.962 25.4766C105.366 25.1571 105.674 24.7115 105.887 24.1398C106.106 23.568 106.215 22.8982 106.215 22.1303C106.215 21.3623 106.108 20.6953 105.895 20.1292C105.682 19.5631 105.374 19.1258 104.971 18.8176C104.567 18.5093 104.077 18.3551 103.499 18.3551C102.911 18.3551 102.415 18.5149 102.011 18.8344C101.607 19.1539 101.302 19.5967 101.095 20.1628C100.887 20.729 100.783 21.3848 100.783 22.1303C100.783 22.8814 100.887 23.5456 101.095 24.1229C101.308 24.6947 101.613 25.1431 102.011 25.4682C102.415 25.7877 102.911 25.9475 103.499 25.9475Z" fill="black"/>
<path d="M94.1509 11.3682C94.4416 11.3682 94.6772 11.6038 94.6772 11.8945V28.0612C94.6772 28.3519 94.4416 28.5875 94.1509 28.5875H91.5629C91.2723 28.5875 91.0366 28.3519 91.0366 28.0612V11.8945C91.0366 11.6038 91.2723 11.3682 91.5629 11.3682H94.1509Z" fill="black"/>
<defs>
<linearGradient id="paint0_linear_68367_73812" x1="48.643" y1="13.6786" x2="61.5788" y2="32.5367" gradientUnits="userSpaceOnUse">
<stop stop-color="#CC5CDC"/>
<stop offset="0.244792" stop-color="#7B66FF"/>
<stop offset="0.520833" stop-color="#1F8AF0"/>
<stop offset="0.760417" stop-color="#00D1FF"/>
<stop offset="1" stop-color="#3DEDD7"/>
</linearGradient>
</defs>
</svg>