<svg width="21" height="20" viewBox="0 0 21 20" fill="none" xmlns="http://www.w3.org/2000/svg">
<path d="M15.4935 15.4621L15.2 16.2421L15.4935 15.4621ZM15.5549 16.0845L15.2133 15.3244L15.5549 16.0845ZM16.0103 15.7668L16.8432 15.7407L16.0103 15.7668ZM15.5549 3.91679L15.8965 3.15669L15.5549 3.91679ZM16.0103 4.23453L16.8432 4.26057L16.0103 4.23453ZM12.5474 10.0007C12.5474 7.86015 13.8928 6.0318 15.7869 5.31913L15.2 3.75922C12.6776 4.7083 10.8807 7.14359 10.8807 10.0007H12.5474ZM15.7869 14.6822C13.8928 13.9695 12.5474 12.1411 12.5474 10.0007H10.8807C10.8807 12.8577 12.6776 15.293 15.2 16.2421L15.7869 14.6822ZM15.2133 15.3244C14.4854 15.6516 13.6775 15.834 12.8249 15.834V17.5007C13.9177 17.5007 14.958 17.2664 15.8965 16.8446L15.2133 15.3244ZM12.8249 15.834C9.60321 15.834 6.99154 13.2223 6.99154 10.0007H5.32487C5.32487 14.1428 8.68273 17.5007 12.8249 17.5007V15.834ZM6.99154 10.0007C6.99154 6.77899 9.60321 4.16732 12.8249 4.16732V2.50065C8.68273 2.50065 5.32487 5.85852 5.32487 10.0007H6.99154ZM12.8249 4.16732C13.6775 4.16732 14.4854 4.34974 15.2133 4.67688L15.8965 3.15669C14.958 2.73489 13.9177 2.50065 12.8249 2.50065V4.16732ZM15.2 16.2421C15.2883 16.2753 15.3532 16.2998 15.4066 16.3213C15.4323 16.3316 15.4513 16.3397 15.4654 16.3461C15.4798 16.3525 15.4854 16.3555 15.485 16.3553C15.485 16.3553 15.4729 16.3489 15.4539 16.3354C15.4353 16.3222 15.4015 16.2963 15.3636 16.2552C15.3247 16.213 15.278 16.1511 15.2406 16.0676C15.2021 15.9816 15.1804 15.888 15.1774 15.7928L16.8432 15.7407C16.8259 15.1851 16.3723 14.9399 16.2728 14.8866C16.1259 14.8078 15.9332 14.7372 15.7869 14.6822L15.2 16.2421ZM15.8965 16.8446C16.0235 16.7876 16.2062 16.7078 16.3455 16.6193C16.4631 16.5446 16.8599 16.2728 16.8432 15.7407L15.1774 15.7928C15.1747 15.7071 15.1874 15.6189 15.217 15.5337C15.2459 15.4502 15.2858 15.3846 15.3226 15.3367C15.3583 15.2902 15.392 15.2591 15.4128 15.2417C15.4337 15.2241 15.4485 15.2146 15.4518 15.2125C15.4554 15.2102 15.4424 15.2185 15.3948 15.2413C15.349 15.2633 15.2927 15.2887 15.2133 15.3244L15.8965 16.8446ZM15.7869 5.31913C15.9332 5.26408 16.1259 5.19355 16.2728 5.11473C16.3723 5.06136 16.8259 4.81616 16.8432 4.26057L15.1774 4.20849C15.1804 4.11333 15.2021 4.0197 15.2406 3.93368C15.278 3.85019 15.3247 3.78831 15.3636 3.74614C15.4015 3.70501 15.4353 3.67908 15.4539 3.66587C15.4729 3.65243 15.485 3.64603 15.485 3.64602C15.4854 3.6458 15.4798 3.64879 15.4654 3.65524C15.4513 3.66158 15.4323 3.66967 15.4066 3.68002C15.3532 3.70152 15.2883 3.72599 15.2 3.75922L15.7869 5.31913ZM15.2133 4.67688C15.2927 4.71258 15.349 4.73796 15.3948 4.75995C15.4424 4.78281 15.4554 4.79108 15.4518 4.7888C15.4485 4.78673 15.4337 4.77717 15.4128 4.75964C15.392 4.74221 15.3583 4.71114 15.3226 4.66457C15.2858 4.61666 15.2459 4.55109 15.217 4.4676C15.1874 4.38241 15.1747 4.29417 15.1774 4.20849L16.8432 4.26057C16.8599 3.72851 16.4631 3.45672 16.3455 3.38201C16.2062 3.29353 16.0235 3.21375 15.8965 3.15669L15.2133 4.67688Z" fill="white"/>
</svg>
