<svg width="40" height="40" viewBox="0 0 40 40" fill="none" xmlns="http://www.w3.org/2000/svg">
<g clip-path="url(#clip0_80845_9119)">
<path d="M6.85082 35.6607H28.9222L27.8681 32.2476L30.3896 34.4116L32.7006 36.4826L36.9109 40.001V6.6826C36.8057 4.61152 35.0225 2.85156 32.8121 2.85156L6.85856 2.85621C4.64971 2.85621 2.85725 4.61926 2.85725 6.69034V31.8281C2.85725 34.0122 4.64662 35.6607 6.85082 35.6607ZM23.178 11.6482L23.1269 11.6668L23.1455 11.6482H23.178ZM11.366 13.6125C14.2033 11.5476 16.8332 11.6467 16.8332 11.6467L17.0452 11.8557C13.5733 12.6838 11.9991 14.2348 11.9991 14.2348C11.9991 14.2348 12.4201 14.0289 13.1554 13.7147C17.8316 11.8758 22.9381 12.0089 27.6653 14.3369C27.6653 14.3369 26.088 12.8866 22.8297 11.9578L23.1176 11.6746C23.5681 11.6761 25.9518 11.7597 28.5028 13.6249C28.5028 13.6249 31.3571 18.5008 31.3571 24.4911C31.2627 24.3766 29.5863 27.0699 25.2723 27.1628C25.2723 27.1628 24.5417 26.3362 24.0216 25.6149C26.5447 24.8905 27.4889 23.4416 27.4889 23.4416C26.6608 23.9633 25.9054 24.2729 25.2924 24.5824C24.3498 24.9973 23.4055 25.2016 22.4629 25.4106C17.9987 26.135 15.4927 24.923 13.1244 23.9617L12.3149 23.55C12.3149 23.55 13.2576 24.9988 15.68 25.7232C15.0438 26.4492 14.4138 27.2742 14.4138 27.2742C10.1014 27.1721 8.52874 24.4787 8.52874 24.4787C8.52874 18.4791 11.366 13.6125 11.366 13.6125Z" fill="black"/>
<path d="M23.4543 22.6133C24.5549 22.6133 25.4511 21.6845 25.4511 20.5391C25.4511 19.4014 24.5595 18.4727 23.4543 18.4727V18.4773C22.3584 18.4773 21.4606 19.4029 21.4575 20.5484C21.4575 21.6845 22.3537 22.6133 23.4543 22.6133Z" fill="black"/>
<path d="M16.3059 22.6133C17.4064 22.6133 18.3027 21.6845 18.3027 20.5391C18.3027 19.4014 17.4126 18.4727 16.3121 18.4727L16.3059 18.4773C15.2053 18.4773 14.3091 19.4029 14.3091 20.5484C14.3091 21.6845 15.2053 22.6133 16.3059 22.6133Z" fill="black"/>
</g>
<defs>
<clipPath id="clip0_80845_9119">
<rect width="40" height="40" fill="white"/>
</clipPath>
</defs>
</svg>
