<svg width="29" height="28" viewBox="0 0 29 28" fill="none" xmlns="http://www.w3.org/2000/svg">
<path fill-rule="evenodd" clip-rule="evenodd" d="M14.87 0.076032C11.5613 0.0725834 8.35961 1.27756 5.83859 3.47504C3.31756 5.67251 1.64203 8.71884 1.11227 12.0681C0.582514 15.4173 1.23315 18.8506 2.94758 21.7526C4.66201 24.6546 7.32817 26.8357 10.4683 27.9049C11.1606 28.0364 11.417 27.5981 11.417 27.2125C11.417 26.8268 11.417 25.9766 11.417 24.7846C7.54516 25.6611 6.72463 22.8738 6.72463 22.8738C6.46822 22.0114 5.91951 21.2715 5.17761 20.7877C3.91265 19.9112 5.27163 19.9112 5.27163 19.9112C5.71377 19.9731 6.13622 20.138 6.5066 20.3933C6.87698 20.6485 7.18547 20.9873 7.4084 21.3837C7.5974 21.7355 7.85246 22.0454 8.15887 22.2955C8.46528 22.5457 8.81696 22.7311 9.19362 22.8411C9.57028 22.9511 9.96446 22.9835 10.3534 22.9365C10.7423 22.8894 11.1183 22.7639 11.4597 22.567C11.5148 21.8464 11.8177 21.1692 12.3144 20.6562C9.22038 20.2969 5.97249 19.0698 5.97249 13.6004C5.95356 12.1819 6.46774 10.8103 7.4084 9.77012C6.98402 8.53884 7.03291 7.18802 7.54515 5.9924C7.54515 5.9924 8.7161 5.60674 11.3742 7.45616C13.657 6.81477 16.0659 6.81477 18.3487 7.45616C21.0068 5.60674 22.1778 5.9924 22.1778 5.9924C22.6909 7.18782 22.7398 8.53897 22.3145 9.77012C23.2528 10.8112 23.764 12.1829 23.7419 13.6004C23.7419 19.0873 20.4854 20.2881 17.3828 20.6124C17.7137 20.9567 17.9694 21.3692 18.133 21.8225C18.2965 22.2759 18.3642 22.7597 18.3316 23.2419C18.3316 25.1527 18.3316 26.6866 18.3316 27.1599C18.3316 27.6332 18.5794 27.9838 19.2888 27.8435C22.4233 26.7693 25.0829 24.5867 26.7921 21.686C28.5013 18.7853 29.1487 15.3557 28.6183 12.0105C28.088 8.66527 26.4147 5.62257 23.8975 3.42649C21.3803 1.23042 18.1834 0.0241628 14.8785 0.0234375L14.87 0.076032Z" fill="#FFEBFD"/>
</svg>
