<svg width="40" height="40" viewBox="0 0 40 40" fill="none" xmlns="http://www.w3.org/2000/svg">
<path fill-rule="evenodd" clip-rule="evenodd" d="M20 1.43341C15.5885 1.42881 11.3195 3.03545 7.95813 5.96541C4.59677 8.89538 2.36272 12.9571 1.65638 17.4228C0.950035 21.8885 1.81756 26.4662 4.10346 30.3355C6.38936 34.2048 9.94424 37.1129 14.131 38.5386C15.0541 38.7139 15.396 38.1295 15.396 37.6153C15.396 37.1011 15.396 35.9675 15.396 34.3781C10.2336 35.5468 9.13953 31.8304 9.13953 31.8304C8.79765 30.6806 8.06603 29.694 7.07684 29.049C5.39021 27.8803 7.20219 27.8803 7.20219 27.8803C7.79171 27.9629 8.35497 28.1827 8.84882 28.523C9.34266 28.8634 9.75397 29.3151 10.0512 29.8437C10.3032 30.3127 10.6433 30.7259 11.0518 31.0594C11.4604 31.3929 11.9293 31.6401 12.4315 31.7868C12.9337 31.9335 13.4593 31.9767 13.9779 31.914C14.4965 31.8513 14.9978 31.6839 15.453 31.4214C15.5265 30.4605 15.9303 29.5576 16.5926 28.8737C12.4672 28.3945 8.13667 26.7584 8.13667 19.4659C8.11143 17.5746 8.79701 15.7458 10.0512 14.3589C9.48537 12.7171 9.55056 10.9161 10.2335 9.3219C10.2335 9.3219 11.7948 8.80769 15.339 11.2736C18.3827 10.4184 21.5946 10.4184 24.6382 11.2736C28.1824 8.80769 29.7437 9.3219 29.7437 9.3219C30.4278 10.9158 30.493 12.7173 29.926 14.3589C31.1771 15.747 31.8587 17.576 31.8292 19.4659C31.8292 26.7818 27.4873 28.3828 23.3505 28.8152C23.7916 29.2743 24.1325 29.8243 24.3506 30.4287C24.5687 31.0332 24.659 31.6783 24.6154 32.3212C24.6154 34.8689 24.6154 36.9141 24.6154 37.5452C24.6154 38.1763 24.9459 38.6437 25.8918 38.4567C30.0711 37.0244 33.6173 34.1142 35.8962 30.2467C38.1751 26.3791 39.0382 21.8063 38.3311 17.346C37.6241 12.8857 35.3929 8.82879 32.0367 5.90069C28.6804 2.97259 24.4179 1.36425 20.0114 1.36328L20 1.43341Z" fill="black"/>
</svg>
