<svg width="57" height="56" viewBox="0 0 57 56" fill="none" xmlns="http://www.w3.org/2000/svg">
<path d="M27.5867 49.6587C28.4644 50.1484 29.5205 50.1214 30.393 49.6226C36.2715 46.2631 46.4865 38.5294 50.4984 28.4837C56.3867 15.4039 42.5609 4.9629 33.0052 12.4725C32.0085 13.2558 30.7552 14.1524 29.8928 15.0016C29.5028 15.3856 28.8155 15.4248 28.4108 15.0565C27.2768 14.0248 25.5046 12.7014 24.3665 11.9313C16.2202 6.41986 1.39784 13.6849 7.72055 29.1903C10.0367 36.1501 21.0741 46.0242 27.5867 49.6587Z" fill="url(#paint0_radial_71319_51795)"/>
<path d="M27.5867 49.6587C28.4644 50.1484 29.5205 50.1214 30.393 49.6226C36.2715 46.2631 46.4865 38.5294 50.4984 28.4837C56.3867 15.4039 42.5609 4.9629 33.0052 12.4725C32.0085 13.2558 30.7552 14.1524 29.8928 15.0016C29.5028 15.3856 28.8155 15.4248 28.4108 15.0565C27.2768 14.0248 25.5046 12.7014 24.3665 11.9313C16.2202 6.41986 1.39784 13.6849 7.72055 29.1903C10.0367 36.1501 21.0741 46.0242 27.5867 49.6587Z" fill="url(#paint1_radial_71319_51795)"/>
<path d="M27.5867 49.6587C28.4644 50.1484 29.5205 50.1214 30.393 49.6226C36.2715 46.2631 46.4865 38.5294 50.4984 28.4837C56.3867 15.4039 42.5609 4.9629 33.0052 12.4725C32.0085 13.2558 30.7552 14.1524 29.8928 15.0016C29.5028 15.3856 28.8155 15.4248 28.4108 15.0565C27.2768 14.0248 25.5046 12.7014 24.3665 11.9313C16.2202 6.41986 1.39784 13.6849 7.72055 29.1903C10.0367 36.1501 21.0741 46.0242 27.5867 49.6587Z" fill="url(#paint2_radial_71319_51795)"/>
<path d="M27.5867 49.6587C28.4644 50.1484 29.5205 50.1214 30.393 49.6226C36.2715 46.2631 46.4865 38.5294 50.4984 28.4837C56.3867 15.4039 42.5609 4.9629 33.0052 12.4725C32.0085 13.2558 30.7552 14.1524 29.8928 15.0016C29.5028 15.3856 28.8155 15.4248 28.4108 15.0565C27.2768 14.0248 25.5046 12.7014 24.3665 11.9313C16.2202 6.41986 1.39784 13.6849 7.72055 29.1903C10.0367 36.1501 21.0741 46.0242 27.5867 49.6587Z" fill="url(#paint3_radial_71319_51795)"/>
<path d="M27.5867 49.6587C28.4644 50.1484 29.5205 50.1214 30.393 49.6226C36.2715 46.2631 46.4865 38.5294 50.4984 28.4837C56.3867 15.4039 42.5609 4.9629 33.0052 12.4725C32.0085 13.2558 30.7552 14.1524 29.8928 15.0016C29.5028 15.3856 28.8155 15.4248 28.4108 15.0565C27.2768 14.0248 25.5046 12.7014 24.3665 11.9313C16.2202 6.41986 1.39784 13.6849 7.72055 29.1903C10.0367 36.1501 21.0741 46.0242 27.5867 49.6587Z" fill="url(#paint4_linear_71319_51795)"/>
<path d="M27.5867 49.6587C28.4644 50.1484 29.5205 50.1214 30.393 49.6226C36.2715 46.2631 46.4865 38.5294 50.4984 28.4837C56.3867 15.4039 42.5609 4.9629 33.0052 12.4725C32.0085 13.2558 30.7552 14.1524 29.8928 15.0016C29.5028 15.3856 28.8155 15.4248 28.4108 15.0565C27.2768 14.0248 25.5046 12.7014 24.3665 11.9313C16.2202 6.41986 1.39784 13.6849 7.72055 29.1903C10.0367 36.1501 21.0741 46.0242 27.5867 49.6587Z" fill="url(#paint5_linear_71319_51795)"/>
<path d="M27.5867 49.6587C28.4644 50.1484 29.5205 50.1214 30.393 49.6226C36.2715 46.2631 46.4865 38.5294 50.4984 28.4837C56.3867 15.4039 42.5609 4.9629 33.0052 12.4725C32.0085 13.2558 30.7552 14.1524 29.8928 15.0016C29.5028 15.3856 28.8155 15.4248 28.4108 15.0565C27.2768 14.0248 25.5046 12.7014 24.3665 11.9313C16.2202 6.41986 1.39784 13.6849 7.72055 29.1903C10.0367 36.1501 21.0741 46.0242 27.5867 49.6587Z" fill="url(#paint6_radial_71319_51795)" fill-opacity="0.6"/>
<path d="M28.7197 19.0461V30.2396C28.7197 31.724 30.5172 32.4277 31.4427 31.2669C34.3057 27.6756 36.6149 23.3086 34.0378 19.7414C33.0498 18.3738 31.1569 17.4975 29.6103 17.7763C29.0316 17.8806 28.7197 18.4581 28.7197 19.0461Z" fill="#FA1C56"/>
<path d="M47.3121 24.775C50.2108 21.957 50.6663 17.7239 48.3294 15.3199C45.9924 12.9159 41.748 13.2516 38.8493 16.0695C35.9505 18.8875 35.495 23.1207 37.832 25.5246C40.1689 27.9286 44.4133 27.593 47.3121 24.775Z" fill="url(#paint7_radial_71319_51795)"/>
<path d="M41.0363 12.2835C42.558 12.4748 43.8241 12.3706 43.8643 12.0509C43.9045 11.7312 42.7035 11.3169 41.1819 11.1257C39.6603 10.9344 38.3942 11.0385 38.354 11.3582C38.3138 11.6779 39.5147 12.0922 41.0363 12.2835Z" fill="#FF7383"/>
<path d="M18.0316 12.0868C19.4075 12.0701 20.5207 11.8733 20.518 11.6474C20.5152 11.4214 19.3976 11.2518 18.0216 11.2685C16.6457 11.2853 15.5325 11.482 15.5353 11.708C15.538 11.934 16.6556 12.1036 18.0316 12.0868Z" fill="#FF93BA" fill-opacity="0.5"/>
<path d="M26.9756 18.0937L27.4885 34.9101C16.2092 23.9385 14.0402 16.2336 18.3624 14.5048C22.4641 12.8642 25.7453 15.5302 26.9756 18.0937Z" fill="url(#paint8_radial_71319_51795)"/>
<path d="M26.1533 17.1113C24.7752 16.9145 24.3486 15.7715 24.3076 15.2246C25.0951 16.0449 25.8662 16.1133 26.1533 16.0449V17.1113Z" fill="#FF7383"/>
<defs>
<radialGradient id="paint0_radial_71319_51795" cx="0" cy="0" r="1" gradientUnits="userSpaceOnUse" gradientTransform="translate(28.679 10.9927) rotate(90) scale(37.7089 40.0347)">
<stop stop-color="#FC0000"/>
<stop offset="0.527969" stop-color="#FF3B79"/>
<stop offset="1" stop-color="#F724B3"/>
</radialGradient>
<radialGradient id="paint1_radial_71319_51795" cx="0" cy="0" r="1" gradientUnits="userSpaceOnUse" gradientTransform="translate(40.3965 20.3926) rotate(134.402) scale(34.8874 65.3474)">
<stop offset="0.797874" stop-color="#C82092" stop-opacity="0"/>
<stop offset="0.908039" stop-color="#C82092"/>
</radialGradient>
<radialGradient id="paint2_radial_71319_51795" cx="0" cy="0" r="1" gradientUnits="userSpaceOnUse" gradientTransform="translate(35.4286 30.9344) rotate(-158.663) scale(37.3226 52.7609)">
<stop offset="0.40984" stop-color="#B91D43" stop-opacity="0"/>
<stop offset="0.833898" stop-color="#B91D43"/>
</radialGradient>
<radialGradient id="paint3_radial_71319_51795" cx="0" cy="0" r="1" gradientUnits="userSpaceOnUse" gradientTransform="translate(28.1498 24.4161) rotate(90) scale(32.4831 32.4831)">
<stop offset="0.671096" stop-color="#FF7AF2" stop-opacity="0"/>
<stop offset="0.933555" stop-color="#FFBCE6"/>
</radialGradient>
<linearGradient id="paint4_linear_71319_51795" x1="31.7349" y1="28.2184" x2="44.88" y2="43.8624" gradientUnits="userSpaceOnUse">
<stop offset="0.694491" stop-color="#FF7AF2" stop-opacity="0"/>
<stop offset="0.933555" stop-color="#FFBCE6"/>
</linearGradient>
<linearGradient id="paint5_linear_71319_51795" x1="30.1052" y1="28.8702" x2="14.6785" y2="46.2524" gradientUnits="userSpaceOnUse">
<stop offset="0.694491" stop-color="#FF7AF2" stop-opacity="0"/>
<stop offset="0.933555" stop-color="#FFBCE6"/>
</linearGradient>
<radialGradient id="paint6_radial_71319_51795" cx="0" cy="0" r="1" gradientUnits="userSpaceOnUse" gradientTransform="translate(32.722 22.907) rotate(164.618) scale(28.2427 29.8269)">
<stop offset="0.802083" stop-color="#FF73A6" stop-opacity="0"/>
<stop offset="1" stop-color="#FF93BA"/>
</radialGradient>
<radialGradient id="paint7_radial_71319_51795" cx="0" cy="0" r="1" gradientUnits="userSpaceOnUse" gradientTransform="translate(48.18 15.1781) rotate(128.737) scale(11.9624 15.9069)">
<stop stop-color="#FF7383"/>
<stop offset="1" stop-color="#FF7383" stop-opacity="0"/>
</radialGradient>
<radialGradient id="paint8_radial_71319_51795" cx="0" cy="0" r="1" gradientUnits="userSpaceOnUse" gradientTransform="translate(29.4367 24.4551) rotate(-135.591) scale(20.8131 36.9469)">
<stop stop-color="#FF6274"/>
<stop offset="1" stop-color="#FF6274" stop-opacity="0"/>
</radialGradient>
</defs>
</svg>
