<svg width="40" height="40" viewBox="0 0 40 40" fill="none" xmlns="http://www.w3.org/2000/svg">
<path d="M29.5455 3.63477H10.4545C6.68955 3.63477 3.63636 6.68795 3.63636 10.4529V29.5439C3.63636 33.3089 6.68955 36.362 10.4545 36.362H29.5455C33.3118 36.362 36.3636 33.3089 36.3636 29.5439V10.4529C36.3636 6.68795 33.3118 3.63477 29.5455 3.63477ZM14.5455 29.5439H10.4545V14.5439H14.5455V29.5439ZM12.5 12.8148C11.1827 12.8148 10.1136 11.7375 10.1136 10.4093C10.1136 9.08113 11.1827 8.00386 12.5 8.00386C13.8173 8.00386 14.8864 9.08113 14.8864 10.4093C14.8864 11.7375 13.8186 12.8148 12.5 12.8148ZM30.9091 29.5439H26.8182V21.902C26.8182 17.3093 21.3636 17.657 21.3636 21.902V29.5439H17.2727V14.5439H21.3636V16.9507C23.2673 13.4243 30.9091 13.1639 30.9091 20.327V29.5439Z" fill="white"/>
</svg>
