<svg width="212" height="40" viewBox="0 0 212 40" fill="none" xmlns="http://www.w3.org/2000/svg">
<path d="M15.4129 11.3865C15.7622 11.3865 15.9369 11.3865 16.0704 11.4543C16.1877 11.5139 16.2831 11.609 16.343 11.726C16.4109 11.8591 16.4109 12.0332 16.4109 12.3815V27.5878C16.4109 27.9361 16.4109 28.1103 16.343 28.2433C16.2831 28.3603 16.1877 28.4554 16.0704 28.5151C15.9369 28.5828 15.7622 28.5828 15.4129 28.5828H12.8637C12.6912 28.5828 12.605 28.5828 12.5251 28.5613C12.4544 28.5423 12.3875 28.511 12.3277 28.4688C12.2601 28.4212 12.2051 28.355 12.0951 28.2226L5.31035 20.0574C5.14721 19.8611 5.06565 19.763 4.99436 19.7527C4.93263 19.7437 4.87049 19.7661 4.82867 19.8122C4.78036 19.8655 4.78036 19.9929 4.78036 20.2479V27.5878C4.78036 27.9361 4.78036 28.1103 4.71238 28.2433C4.65257 28.3603 4.55715 28.4554 4.43978 28.5151C4.30634 28.5828 4.13167 28.5828 3.78232 28.5828H0.998042C0.648694 28.5828 0.47402 28.5828 0.340587 28.5151C0.223217 28.4554 0.127791 28.3603 0.0679875 28.2433C0 28.1103 0 27.9361 0 27.5878V12.3815C0 12.0332 0 11.8591 0.0679875 11.726C0.127791 11.609 0.223217 11.5139 0.340587 11.4543C0.47402 11.3865 0.648694 11.3865 0.998041 11.3865H3.54726C3.71972 11.3865 3.80595 11.3865 3.88581 11.408C3.95657 11.427 4.02341 11.4583 4.08326 11.5005C4.15081 11.5481 4.20582 11.6143 4.31583 11.7467L11.1006 19.9119C11.2637 20.1082 11.3453 20.2064 11.4166 20.2167C11.4783 20.2256 11.5404 20.2033 11.5823 20.1571C11.6306 20.1038 11.6306 19.9764 11.6306 19.7214V12.3815C11.6306 12.0332 11.6306 11.8591 11.6986 11.726C11.7584 11.609 11.8538 11.5139 11.9712 11.4543C12.1046 11.3865 12.2793 11.3865 12.6286 11.3865H15.4129Z" fill="currentColor"/>
<path d="M24.765 15.1451C24.6602 15.1451 24.6078 15.1451 24.5678 15.1654C24.5326 15.1833 24.504 15.2119 24.486 15.247C24.4656 15.2869 24.4656 15.3391 24.4656 15.4436V18.6298C24.4656 18.7343 24.4656 18.7865 24.486 18.8264C24.504 18.8615 24.5326 18.8901 24.5678 18.908C24.6078 18.9283 24.6602 18.9283 24.765 18.9283H31.0817C31.431 18.9283 31.6057 18.9283 31.7391 18.9961C31.8565 19.0557 31.9519 19.1508 32.0117 19.2679C32.0797 19.4009 32.0797 19.575 32.0797 19.9233V21.6919C32.0797 22.0402 32.0797 22.2144 32.0117 22.3474C31.9519 22.4644 31.8565 22.5595 31.7391 22.6192C31.6057 22.6869 31.431 22.6869 31.0817 22.6869H24.765C24.6602 22.6869 24.6078 22.6869 24.5678 22.7073C24.5326 22.7252 24.504 22.7537 24.486 22.7888C24.4656 22.8287 24.4656 22.881 24.4656 22.9854V27.5878C24.4656 27.9361 24.4656 28.1103 24.3976 28.2433C24.3378 28.3603 24.2424 28.4554 24.125 28.5151C23.9916 28.5828 23.8169 28.5828 23.4676 28.5828H20.5847C20.2354 28.5828 20.0607 28.5828 19.9273 28.5151C19.8099 28.4554 19.7145 28.3603 19.6547 28.2433C19.5867 28.1103 19.5867 27.9361 19.5867 27.5878V12.3815C19.5867 12.0332 19.5867 11.8591 19.6547 11.726C19.7145 11.609 19.8099 11.5139 19.9273 11.4543C20.0607 11.3865 20.2354 11.3865 20.5847 11.3865H32.1166C32.4659 11.3865 32.6406 11.3865 32.7741 11.4543C32.8914 11.5139 32.9868 11.609 33.0466 11.726C33.1146 11.8591 33.1146 12.0332 33.1146 12.3815V14.1501C33.1146 14.4984 33.1146 14.6725 33.0466 14.8056C32.9868 14.9226 32.8914 15.0177 32.7741 15.0773C32.6406 15.1451 32.4659 15.1451 32.1166 15.1451H24.765Z" fill="currentColor"/>
<path fill-rule="evenodd" clip-rule="evenodd" d="M48.9489 2.98425C49.4627 2.92963 49.8349 2.47007 49.7801 1.95779C49.7253 1.4455 49.2643 1.0745 48.7505 1.12911L46.8396 1.33223C45.8606 1.43628 45.0754 1.51974 44.4377 1.63501C43.7807 1.75376 43.2177 1.91608 42.6947 2.20825C41.8457 2.68262 41.1419 3.37774 40.6584 4.21953C40.3606 4.73811 40.1929 5.29772 40.0682 5.95113C39.9472 6.5853 39.857 7.36659 39.7445 8.3405L39.7396 8.38245L39.552 10.2428C39.5003 10.7554 39.8752 11.2127 40.3894 11.2642C40.9035 11.3158 41.3622 10.942 41.4139 10.4294L41.6002 8.58251C41.7173 7.56881 41.8002 6.85751 41.9066 6.29974C42.011 5.75233 42.1276 5.41602 42.2824 5.14656C42.5973 4.59814 43.056 4.14504 43.6096 3.83574C43.8817 3.68369 44.2207 3.57028 44.7715 3.47073C45.3339 3.36908 46.0509 3.29228 47.0733 3.1836L48.9489 2.98425ZM67.1522 1.9578C67.0974 2.47008 67.4695 2.92965 67.9834 2.98426L69.8589 3.18362C70.8814 3.2923 71.5984 3.3691 72.1608 3.47075C72.7115 3.5703 73.0505 3.68371 73.3226 3.83576C73.8762 4.14506 74.3349 4.59816 74.6499 5.14658C74.8047 5.41604 74.9212 5.75235 75.0257 6.29976C75.1321 6.85753 75.2149 7.56883 75.332 8.58253L75.5183 10.4295C75.57 10.942 76.0287 11.3158 76.5429 11.2643C77.057 11.2127 77.4319 10.7554 77.3802 10.2428L77.1926 8.38247L77.1878 8.34052C77.0753 7.36661 76.985 6.58532 76.864 5.95114C76.7394 5.29774 76.5717 4.73813 76.2739 4.21955C75.7904 3.37776 75.0865 2.68263 74.2375 2.20827C73.7146 1.9161 73.1516 1.75378 72.4946 1.63503C71.8569 1.51976 71.0717 1.4363 70.0926 1.33225L68.1818 1.12913C67.6679 1.07451 67.207 1.44552 67.1522 1.9578ZM67.1522 38.0144C67.0974 37.5021 67.4695 37.0426 67.9834 36.9879L69.8589 36.7886C70.8814 36.6799 71.5984 36.6031 72.1608 36.5015C72.7115 36.4019 73.0505 36.2885 73.3226 36.1364C73.8762 35.8271 74.3349 35.374 74.6499 34.8256C74.8047 34.5562 74.9212 34.2199 75.0257 33.6725C75.1321 33.1147 75.2149 32.4034 75.332 31.3897L75.5183 29.5428C75.57 29.0302 76.0287 28.6564 76.5429 28.7079C77.057 28.7595 77.4319 29.2168 77.3802 29.7294L77.1926 31.5897L77.1878 31.6317C77.0753 32.6056 76.985 33.3869 76.864 34.0211C76.7394 34.6745 76.5717 35.2341 76.2739 35.7527C75.7904 36.5945 75.0865 37.2896 74.2375 37.7639C73.7146 38.0561 73.1516 38.2184 72.4946 38.3372C71.8569 38.4524 71.0717 38.5359 70.0926 38.64L68.1818 38.8431C67.6679 38.8977 67.207 38.5267 67.1522 38.0144ZM49.7801 38.0144C49.8349 37.5021 49.4627 37.0426 48.9489 36.9879L47.0733 36.7886C46.0509 36.6799 45.3339 36.6031 44.7715 36.5015C44.2207 36.4019 43.8817 36.2885 43.6096 36.1364C43.056 35.8271 42.5973 35.374 42.2824 34.8256C42.1276 34.5562 42.011 34.2199 41.9066 33.6725C41.8002 33.1147 41.7173 32.4034 41.6002 31.3897L41.414 29.5428C41.3623 29.0302 40.9035 28.6564 40.3894 28.7079C39.8752 28.7595 39.5003 29.2168 39.552 29.7294L39.7396 31.5897L39.7445 31.6317C39.857 32.6056 39.9472 33.3869 40.0682 34.0211C40.1929 34.6745 40.3606 35.2341 40.6584 35.7527C41.1419 36.5945 41.8457 37.2896 42.6947 37.7639C43.2177 38.0561 43.7807 38.2184 44.4377 38.3372C45.0754 38.4524 45.8605 38.5359 46.8395 38.6399L46.8396 38.64H46.8396L48.7505 38.8431C49.2643 38.8977 49.7253 38.5267 49.7801 38.0144ZM49.2695 12.7922C48.8249 12.7922 48.4644 13.1527 48.4644 13.5973V26.6468C48.4644 27.0915 48.8249 27.4519 49.2695 27.4519H51.8186C52.2632 27.4519 52.6237 27.0915 52.6237 26.6468V13.5973C52.6237 13.1527 52.2632 12.7922 51.8186 12.7922H49.2695ZM56.1613 12.7922C55.7167 12.7922 55.3562 13.1527 55.3562 13.5973V26.6468C55.3562 27.0915 55.7167 27.4519 56.1613 27.4519H62.3093C63.9198 27.4519 65.3482 27.1517 66.5945 26.5514C67.8409 25.951 68.8072 25.0994 69.4934 23.9964C70.1796 22.8934 70.5227 21.602 70.5227 20.1221C70.5227 18.6421 70.1796 17.3507 69.4934 16.2477C68.8072 15.1447 67.8409 14.2931 66.5945 13.6927C65.3482 13.0924 63.9198 12.7922 62.3093 12.7922H56.1613ZM65.1661 23.0749C64.4099 23.787 63.4016 24.143 62.1412 24.143H59.757C59.6236 24.143 59.5155 24.0349 59.5155 23.9015V16.3426C59.5155 16.2093 59.6236 16.1011 59.757 16.1011H62.1412C63.4016 16.1011 64.4099 16.4571 65.1661 17.1692C65.9363 17.8812 66.3215 18.8655 66.3215 20.1221C66.3215 21.3786 65.9363 22.3629 65.1661 23.0749Z" fill="url(#paint0_linear_67888_44024)"/>
<path d="M210.193 15.6725C210.483 15.6725 210.719 15.9081 210.719 16.1988V17.8367C210.719 18.1274 210.483 18.363 210.193 18.363H203.468C203.177 18.363 202.942 18.1274 202.942 17.8367V16.1988C202.942 15.9081 203.177 15.6725 203.468 15.6725H210.193ZM204.707 13.1047C204.707 12.814 204.943 12.5784 205.234 12.5784H207.763C208.053 12.5784 208.289 12.814 208.289 13.1047V24.6185C208.289 24.9492 208.339 25.207 208.44 25.392C208.541 25.5714 208.681 25.6975 208.861 25.7704C209.046 25.8432 209.259 25.8797 209.5 25.8797C209.668 25.8797 209.836 25.8656 210.004 25.8376C210.219 25.7947 210.427 25.9332 210.473 26.1475L210.855 27.9589C210.911 28.2244 210.756 28.488 210.492 28.5521C210.402 28.574 210.304 28.5969 210.198 28.6206C209.873 28.6991 209.477 28.7468 209.012 28.7636C208.149 28.7972 207.392 28.6823 206.742 28.4188C206.097 28.1554 205.596 27.7462 205.237 27.1913C204.878 26.6364 204.702 25.9357 204.707 25.0893V13.1047Z" fill="currentColor"/>
<path d="M197.925 28.5869C197.634 28.5869 197.399 28.3512 197.399 28.0606V16.1987C197.399 15.908 197.634 15.6724 197.925 15.6724H200.454C200.745 15.6724 200.98 15.908 200.98 16.1987V28.0606C200.98 28.3512 200.745 28.5869 200.454 28.5869H197.925ZM199.198 14.0076C198.666 14.0076 198.209 13.831 197.828 13.4779C197.452 13.1192 197.264 12.6904 197.264 12.1915C197.264 11.6982 197.452 11.275 197.828 10.9219C198.209 10.5632 198.666 10.3838 199.198 10.3838C199.731 10.3838 200.185 10.5632 200.56 10.9219C200.941 11.275 201.132 11.6982 201.132 12.1915C201.132 12.6904 200.941 13.1192 200.56 13.4779C200.185 13.831 199.731 14.0076 199.198 14.0076Z" fill="currentColor"/>
<path d="M180.859 28.587C180.568 28.587 180.333 28.3514 180.333 28.0607V11.894C180.333 11.6033 180.568 11.3677 180.859 11.3677H183.447C183.738 11.3677 183.973 11.6033 183.973 11.894V18.8061C183.973 18.8911 184.042 18.96 184.127 18.96C184.174 18.96 184.217 18.9392 184.247 18.9034L190.239 11.5612C190.339 11.4387 190.489 11.3677 190.647 11.3677H193.641C194.087 11.3677 194.331 11.8868 194.046 12.2298L188.623 18.7731C188.474 18.9535 188.461 19.2111 188.593 19.4049L194.277 27.7648C194.515 28.1142 194.265 28.587 193.842 28.587H190.763C190.587 28.587 190.422 28.499 190.325 28.3526L186.159 22.0995C185.963 21.8052 185.538 21.7842 185.314 22.0578L184.093 23.5482C184.016 23.6422 183.973 23.7601 183.973 23.8817V28.0607C183.973 28.3514 183.738 28.587 183.447 28.587H180.859Z" fill="currentColor"/>
<path d="M168.604 33.4301C168.15 33.4301 167.724 33.3937 167.326 33.3208C167.136 33.2882 166.961 33.251 166.803 33.2092C166.541 33.1402 166.41 32.8627 166.488 32.6036L167.005 30.8925C167.089 30.6134 167.384 30.4599 167.669 30.5186C167.891 30.5642 168.099 30.5902 168.293 30.5966C168.635 30.6078 168.929 30.5294 169.175 30.3612C169.428 30.193 169.632 29.9072 169.789 29.5036L169.93 29.1372C169.975 29.0209 169.977 28.8925 169.936 28.7749L165.611 16.3722C165.491 16.0301 165.745 15.6726 166.108 15.6726H168.735C168.971 15.6726 169.178 15.8293 169.242 16.0561L171.789 25.0919C171.8 25.1302 171.835 25.1567 171.874 25.1567C171.914 25.1567 171.949 25.1303 171.96 25.0921L174.532 16.0549C174.596 15.8287 174.803 15.6726 175.038 15.6726H177.69C178.053 15.6726 178.307 16.0309 178.187 16.3731L173.413 29.9828C173.172 30.6779 172.844 31.2833 172.429 31.799C172.02 32.3202 171.502 32.721 170.874 33.0013C170.246 33.2871 169.489 33.4301 168.604 33.4301Z" fill="currentColor"/>
<path d="M163.533 15.6725C163.824 15.6725 164.059 15.9081 164.059 16.1988V17.8367C164.059 18.1274 163.824 18.363 163.533 18.363H156.808C156.518 18.363 156.282 18.1274 156.282 17.8367V16.1988C156.282 15.9081 156.518 15.6725 156.808 15.6725H163.533ZM158.048 13.1047C158.048 12.814 158.283 12.5784 158.574 12.5784H161.103C161.394 12.5784 161.629 12.814 161.629 13.1047V24.6185C161.629 24.9492 161.68 25.207 161.781 25.392C161.882 25.5714 162.022 25.6975 162.201 25.7704C162.386 25.8432 162.599 25.8797 162.84 25.8797C163.008 25.8797 163.176 25.8656 163.345 25.8376C163.559 25.7947 163.768 25.9332 163.813 26.1475L164.196 27.9589C164.252 28.2244 164.096 28.488 163.833 28.5521C163.742 28.574 163.644 28.5969 163.538 28.6206C163.213 28.6991 162.818 28.7468 162.352 28.7636C161.489 28.7972 160.733 28.6823 160.082 28.4188C159.438 28.1554 158.936 27.7462 158.577 27.1913C158.219 26.6364 158.042 25.9357 158.048 25.0893V13.1047Z" fill="currentColor"/>
<path d="M151.265 28.5869C150.975 28.5869 150.739 28.3512 150.739 28.0606V16.1987C150.739 15.908 150.975 15.6724 151.265 15.6724H153.795C154.085 15.6724 154.321 15.908 154.321 16.1987V28.0606C154.321 28.3512 154.085 28.5869 153.795 28.5869H151.265ZM152.538 14.0076C152.006 14.0076 151.549 13.831 151.168 13.4779C150.792 13.1192 150.605 12.6904 150.605 12.1915C150.605 11.6982 150.792 11.275 151.168 10.9219C151.549 10.5632 152.006 10.3838 152.538 10.3838C153.071 10.3838 153.525 10.5632 153.9 10.9219C154.282 11.275 154.472 11.6982 154.472 12.1915C154.472 12.6904 154.282 13.1192 153.9 13.4779C153.525 13.831 153.071 14.0076 152.538 14.0076Z" fill="currentColor"/>
<path d="M147.88 15.6725C148.17 15.6725 148.406 15.9081 148.406 16.1988V17.8367C148.406 18.1274 148.17 18.363 147.88 18.363H141.155C140.864 18.363 140.629 18.1274 140.629 17.8367V16.1988C140.629 15.9081 140.864 15.6725 141.155 15.6725H147.88ZM142.394 13.1047C142.394 12.814 142.63 12.5784 142.921 12.5784H145.45C145.74 12.5784 145.976 12.814 145.976 13.1047V24.6185C145.976 24.9492 146.026 25.207 146.127 25.392C146.228 25.5714 146.368 25.6975 146.548 25.7704C146.733 25.8432 146.946 25.8797 147.187 25.8797C147.355 25.8797 147.523 25.8656 147.691 25.8376C147.906 25.7947 148.114 25.9332 148.159 26.1475L148.542 27.9589C148.598 28.2244 148.443 28.488 148.179 28.5521C148.089 28.574 147.991 28.5969 147.885 28.6206C147.56 28.6991 147.164 28.7468 146.699 28.7636C145.836 28.7972 145.079 28.6823 144.429 28.4188C143.784 28.1554 143.283 27.7462 142.924 27.1913C142.565 26.6364 142.389 25.9357 142.394 25.0893V13.1047Z" fill="currentColor"/>
<path d="M130.39 21.1211V28.061C130.39 28.3517 130.154 28.5873 129.864 28.5873H127.334C127.044 28.5873 126.808 28.3517 126.808 28.061V16.1991C126.808 15.9084 127.044 15.6728 127.334 15.6728H129.695C129.986 15.6728 130.222 15.9084 130.222 16.1991V17.8618C130.222 17.9112 130.262 17.9513 130.311 17.9513C130.348 17.9513 130.382 17.9283 130.395 17.8938C130.684 17.1698 131.155 16.5948 131.811 16.1689C132.483 15.726 133.299 15.5046 134.257 15.5046C135.154 15.5046 135.936 15.7008 136.603 16.0932C137.27 16.4856 137.789 17.0461 138.159 17.7748C138.529 18.4978 138.714 19.3611 138.714 20.3644V28.061C138.714 28.3517 138.478 28.5873 138.187 28.5873H135.658C135.368 28.5873 135.132 28.3517 135.132 28.061V21.0034C135.138 20.2131 134.936 19.5965 134.527 19.1537C134.117 18.7052 133.554 18.481 132.837 18.481C132.355 18.481 131.929 18.5847 131.559 18.7921C131.194 18.9995 130.908 19.3022 130.701 19.7002C130.499 20.0925 130.395 20.5662 130.39 21.1211Z" fill="currentColor"/>
<path d="M118.543 28.8396C117.215 28.8396 116.071 28.5705 115.113 28.0324C114.16 27.4887 113.426 26.7208 112.91 25.7286C112.394 24.7309 112.136 23.551 112.136 22.1889C112.136 20.8605 112.394 19.6946 112.91 18.6912C113.426 17.6879 114.151 16.906 115.087 16.3454C116.029 15.7849 117.133 15.5046 118.4 15.5046C119.252 15.5046 120.045 15.642 120.78 15.9166C121.52 16.1857 122.164 16.5921 122.713 17.1358C123.268 17.6795 123.7 18.3633 124.008 19.1873C124.317 20.0057 124.471 20.9642 124.471 22.0628V22.5202C124.471 22.8109 124.235 23.0465 123.944 23.0465H114.092C113.801 23.0465 113.566 22.8109 113.566 22.5202V21.3532C113.566 21.0625 113.801 20.8268 114.092 20.8268H120.573C120.863 20.8268 121.105 20.5895 121.057 20.3028C121.006 19.996 120.908 19.7138 120.763 19.4563C120.539 19.0584 120.228 18.7473 119.83 18.5231C119.437 18.2933 118.98 18.1783 118.459 18.1783C117.915 18.1783 117.433 18.3045 117.013 18.5567C116.598 18.8033 116.273 19.1368 116.038 19.5572C115.802 19.972 115.682 20.4345 115.676 20.9445V23.0549C115.676 23.6939 115.794 24.246 116.029 24.7113C116.27 25.1765 116.609 25.5353 117.047 25.7875C117.484 26.0397 118.002 26.1659 118.602 26.1659C119 26.1659 119.364 26.1098 119.695 25.9977C120.026 25.8856 120.309 25.7174 120.544 25.4932C120.689 25.355 120.813 25.1975 120.916 25.0209C121.032 24.8207 121.24 24.6797 121.471 24.6949L123.789 24.8479C124.109 24.869 124.338 25.1699 124.233 25.4727C124.041 26.0291 123.75 26.5292 123.361 26.973C122.845 27.5616 122.178 28.0212 121.36 28.3519C120.547 28.677 119.608 28.8396 118.543 28.8396Z" fill="currentColor"/>
<path d="M102.364 28.7972C101.383 28.7972 100.495 28.545 99.699 28.0405C98.9086 27.5305 98.2808 26.7822 97.8156 25.7956C97.356 24.8035 97.1262 23.5872 97.1262 22.1466C97.1262 20.6668 97.3644 19.4365 97.8408 18.4555C98.3173 17.469 98.9507 16.7319 99.741 16.2443C100.537 15.751 101.409 15.5044 102.356 15.5044C103.079 15.5044 103.682 15.6277 104.164 15.8743C104.651 16.1153 105.044 16.418 105.341 16.7824C105.632 17.1277 105.856 17.4678 106.012 17.8028C106.023 17.8265 106.047 17.8418 106.073 17.8418C106.11 17.8418 106.139 17.812 106.139 17.7753V11.894C106.139 11.6033 106.375 11.3677 106.666 11.3677H109.186C109.477 11.3677 109.713 11.6033 109.713 11.894V28.0607C109.713 28.3514 109.477 28.587 109.186 28.587H106.708C106.417 28.587 106.181 28.3514 106.181 28.0607V26.6112C106.181 26.5601 106.14 26.5187 106.089 26.5187C106.053 26.5187 106.02 26.5395 106.005 26.5717C105.838 26.9125 105.609 27.2508 105.315 27.5865C105.013 27.934 104.618 28.2227 104.13 28.4525C103.648 28.6823 103.059 28.7972 102.364 28.7972ZM103.499 25.947C104.077 25.947 104.564 25.79 104.962 25.4761C105.366 25.1566 105.674 24.711 105.887 24.1393C106.106 23.5675 106.215 22.8977 106.215 22.1298C106.215 21.3619 106.109 20.6948 105.896 20.1287C105.683 19.5626 105.374 19.1254 104.971 18.8171C104.567 18.5088 104.077 18.3546 103.499 18.3546C102.911 18.3546 102.415 18.5144 102.011 18.8339C101.608 19.1534 101.302 19.5962 101.095 20.1623C100.887 20.7285 100.784 21.3843 100.784 22.1298C100.784 22.8809 100.887 23.5451 101.095 24.1225C101.308 24.6942 101.613 25.1426 102.011 25.4677C102.415 25.7872 102.911 25.947 103.499 25.947Z" fill="currentColor"/>
<path d="M94.151 11.3677C94.4417 11.3677 94.6773 11.6033 94.6773 11.894V28.0607C94.6773 28.3514 94.4417 28.587 94.151 28.587H91.563C91.2724 28.587 91.0367 28.3514 91.0367 28.0607V11.894C91.0367 11.6033 91.2724 11.3677 91.563 11.3677H94.151Z" fill="currentColor"/>
<defs>
<linearGradient id="paint0_linear_67888_44024" x1="40" y1="1.12378" x2="77" y2="39.1238" gradientUnits="userSpaceOnUse">
<stop stop-color="#00A695"/>
<stop offset="0.5" stop-color="#018477"/>
<stop offset="1" stop-color="#006F64"/>
</linearGradient>
</defs>
</svg>
