<svg width="65" height="64" viewBox="0 0 65 64" fill="none" xmlns="http://www.w3.org/2000/svg">
<path d="M7.51954 61.3589C6.31228 62.5721 4.34944 62.5743 3.13925 61.3642C1.93319 60.1582 1.93083 58.2035 3.13395 56.9944L40.9473 18.9973C42.1546 17.7842 44.1175 17.7818 45.3276 18.9921C46.5336 20.1981 46.536 22.1528 45.3328 23.3616L7.51954 61.3589Z" fill="#40A17E"/>
<path d="M7.51954 61.3589C6.31228 62.5721 4.34944 62.5743 3.13925 61.3642C1.93319 60.1582 1.93083 58.2035 3.13395 56.9944L40.9473 18.9973C42.1546 17.7842 44.1175 17.7818 45.3276 18.9921C46.5336 20.1981 46.536 22.1528 45.3328 23.3616L7.51954 61.3589Z" fill="url(#paint0_linear_71319_46809)"/>
<path fill-rule="evenodd" clip-rule="evenodd" d="M51.5938 15.9869C51.4064 15.0461 50.659 14.3113 49.7311 14.068C48.6882 13.7946 47.5613 13.3712 46.2938 12.7552C45.2442 12.2452 45.2442 10.7928 46.2938 10.2828C47.5613 9.66679 48.6882 9.2434 49.7311 8.96997C50.659 8.72665 51.4064 7.99188 51.5938 7.05102C51.8774 5.62927 52.3415 3.87684 53.0448 2.16143C53.4872 1.08161 54.8927 1.08161 55.3354 2.16143C56.0387 3.87684 56.5028 5.6293 56.7861 7.05102C56.9737 7.99188 57.7211 8.72647 58.6488 8.97068C59.6869 9.24396 60.8066 9.66677 62.0688 10.2815C63.1179 10.7925 63.1179 12.2454 62.0688 12.7565C60.8066 13.3712 59.6869 13.794 58.6488 14.0673C57.7211 14.3115 56.9737 15.0461 56.7861 15.9869C56.5028 17.4087 56.0387 19.1611 55.3354 20.8765C54.8927 21.9562 53.4872 21.9562 53.0448 20.8765C52.3415 19.1611 51.8774 17.4087 51.5938 15.9869Z" fill="url(#paint1_linear_71319_46809)"/>
<path fill-rule="evenodd" clip-rule="evenodd" d="M22.8809 14.861C22.7406 14.1578 22.1819 13.6086 21.4884 13.4267C20.7088 13.2224 19.8668 12.9059 18.9193 12.4455C18.1347 12.0643 18.1347 10.9787 18.9193 10.5975C19.8668 10.1371 20.7088 9.82058 21.4884 9.61621C22.1819 9.43437 22.7406 8.88516 22.8809 8.18191C23.0925 7.11924 23.4396 5.80938 23.9651 4.52721C24.2961 3.7201 25.3467 3.7201 25.6774 4.52721C26.203 5.80938 26.55 7.11924 26.7617 8.18191C26.9019 8.88516 27.4606 9.43421 28.1539 9.61677C28.9299 9.82102 29.7668 10.137 30.71 10.5965C31.4944 10.9785 31.4944 12.0644 30.71 12.4464C29.7668 12.9059 28.9299 13.2219 28.1539 13.4262C27.4606 13.6087 26.9019 14.1578 26.7617 14.861C26.55 15.9237 26.203 17.2336 25.6774 18.5157C25.3467 19.3228 24.2961 19.3228 23.9651 18.5157C23.4396 17.2336 23.0925 15.9237 22.8809 14.861Z" fill="url(#paint2_linear_71319_46809)"/>
<path fill-rule="evenodd" clip-rule="evenodd" d="M47.2637 42.8298C47.1235 42.1265 46.5648 41.5773 45.8712 41.3955C45.0917 41.1912 44.2497 40.8748 43.3021 40.4142C42.5175 40.033 42.5175 38.9475 43.3021 38.5663C44.2497 38.1058 45.0917 37.7893 45.8712 37.5851C46.5648 37.4032 47.1235 36.854 47.2637 36.1507C47.4753 35.0881 47.8224 33.7782 48.3479 32.4961C48.6789 31.6888 49.7295 31.6888 50.0602 32.4961C50.5858 33.7782 50.9328 35.0881 51.1445 36.1507C51.2847 36.854 51.8434 37.403 52.5368 37.5856C53.3127 37.7898 54.1496 38.1058 55.0928 38.5653C55.8772 38.9472 55.8772 40.0333 55.0928 40.4153C54.1496 40.8748 53.3127 41.1907 52.5368 41.3949C51.8434 41.5775 51.2847 42.1265 51.1445 42.8298C50.9328 43.8926 50.5858 45.2023 50.0602 46.4847C49.7295 47.2917 48.6789 47.2917 48.3479 46.4847C47.8224 45.2023 47.4753 43.8926 47.2637 42.8298Z" fill="url(#paint3_linear_71319_46809)"/>
<path d="M59.8699 32C61.8029 32 63.3699 30.8807 63.3699 29.5C63.3699 28.1193 61.8029 27 59.8699 27C57.9369 27 56.3699 28.1193 56.3699 29.5C56.3699 30.8807 57.9369 32 59.8699 32Z" fill="url(#paint4_radial_71319_46809)"/>
<path d="M59.8699 32C61.8029 32 63.3699 30.8807 63.3699 29.5C63.3699 28.1193 61.8029 27 59.8699 27C57.9369 27 56.3699 28.1193 56.3699 29.5C56.3699 30.8807 57.9369 32 59.8699 32Z" fill="url(#paint5_radial_71319_46809)"/>
<path d="M34.8699 53C36.2506 53 37.3699 51.6569 37.3699 50C37.3699 48.3431 36.2506 47 34.8699 47C33.4892 47 32.3699 48.3431 32.3699 50C32.3699 51.6569 33.4892 53 34.8699 53Z" fill="url(#paint6_radial_71319_46809)"/>
<path d="M34.8699 53C36.2506 53 37.3699 51.6569 37.3699 50C37.3699 48.3431 36.2506 47 34.8699 47C33.4892 47 32.3699 48.3431 32.3699 50C32.3699 51.6569 33.4892 53 34.8699 53Z" fill="url(#paint7_radial_71319_46809)"/>
<path d="M17.3699 33C19.0267 33 20.3699 31.6569 20.3699 30C20.3699 28.3431 19.0267 27 17.3699 27C15.713 27 14.3699 28.3431 14.3699 30C14.3699 31.6569 15.713 33 17.3699 33Z" fill="url(#paint8_radial_71319_46809)"/>
<path d="M17.3699 33C19.0267 33 20.3699 31.6569 20.3699 30C20.3699 28.3431 19.0267 27 17.3699 27C15.713 27 14.3699 28.3431 14.3699 30C14.3699 31.6569 15.713 33 17.3699 33Z" fill="url(#paint9_radial_71319_46809)"/>
<path d="M34.8699 7C36.2506 7 37.3699 5.65685 37.3699 4C37.3699 2.34315 36.2506 1 34.8699 1C33.4892 1 32.3699 2.34315 32.3699 4C32.3699 5.65685 33.4892 7 34.8699 7Z" fill="url(#paint10_radial_71319_46809)"/>
<path d="M34.8699 7C36.2506 7 37.3699 5.65685 37.3699 4C37.3699 2.34315 36.2506 1 34.8699 1C33.4892 1 32.3699 2.34315 32.3699 4C32.3699 5.65685 33.4892 7 34.8699 7Z" fill="url(#paint11_radial_71319_46809)"/>
<path d="M37.1785 22.7842L40.9471 18.9974C42.1544 17.7842 44.1172 17.7818 45.3273 18.9919C46.5333 20.1981 46.5357 22.1527 45.3326 23.3617L41.583 27.1297L37.1785 22.7842Z" fill="#CFC9D8"/>
<path d="M37.1785 22.7842L40.9471 18.9974C42.1544 17.7842 44.1172 17.7818 45.3273 18.9919C46.5333 20.1981 46.5357 22.1527 45.3326 23.3617L41.583 27.1297L37.1785 22.7842Z" fill="url(#paint12_linear_71319_46809)"/>
<path d="M37.1785 22.7842L40.9471 18.9974C42.1544 17.7842 44.1172 17.7818 45.3273 18.9919C46.5333 20.1981 46.5357 22.1527 45.3326 23.3617L41.583 27.1297L37.1785 22.7842Z" fill="url(#paint13_linear_71319_46809)"/>
<path d="M37.1785 22.7842L40.9471 18.9974C42.1544 17.7842 44.1172 17.7818 45.3273 18.9919C46.5333 20.1981 46.5357 22.1527 45.3326 23.3617L41.583 27.1297L37.1785 22.7842Z" fill="url(#paint14_radial_71319_46809)"/>
<path d="M3.13924 61.3701C4.34943 62.5803 6.31227 62.5781 7.51953 61.3649L11.2152 57.6512L6.82745 53.2891L3.13394 57.0006C1.93082 58.2094 1.9332 60.1642 3.13924 61.3701Z" fill="#CFC6DD"/>
<path d="M3.13924 61.3701C4.34943 62.5803 6.31227 62.5781 7.51953 61.3649L11.2152 57.6512L6.82745 53.2891L3.13394 57.0006C1.93082 58.2094 1.9332 60.1642 3.13924 61.3701Z" fill="url(#paint15_linear_71319_46809)"/>
<path d="M3.13924 61.3701C4.34943 62.5803 6.31227 62.5781 7.51953 61.3649L11.2152 57.6512L6.82745 53.2891L3.13394 57.0006C1.93082 58.2094 1.9332 60.1642 3.13924 61.3701Z" fill="url(#paint16_linear_71319_46809)"/>
<path d="M3.13924 61.3701C4.34943 62.5803 6.31227 62.5781 7.51953 61.3649L11.2152 57.6512L6.82745 53.2891L3.13394 57.0006C1.93082 58.2094 1.9332 60.1642 3.13924 61.3701Z" fill="url(#paint17_radial_71319_46809)"/>
<defs>
<linearGradient id="paint0_linear_71319_46809" x1="9.39943" y1="49.646" x2="12.6123" y2="52.8246" gradientUnits="userSpaceOnUse">
<stop stop-color="#003226"/>
<stop offset="1" stop-color="#53C099" stop-opacity="0"/>
</linearGradient>
<linearGradient id="paint1_linear_71319_46809" x1="60.4172" y1="6.73638" x2="50.3084" y2="16.8539" gradientUnits="userSpaceOnUse">
<stop stop-color="#FFD459"/>
<stop offset="1" stop-color="#FFA271"/>
</linearGradient>
<linearGradient id="paint2_linear_71319_46809" x1="29.4758" y1="7.94672" x2="21.9201" y2="15.509" gradientUnits="userSpaceOnUse">
<stop stop-color="#FFD465"/>
<stop offset="1" stop-color="#FFAF36"/>
</linearGradient>
<linearGradient id="paint3_linear_71319_46809" x1="53.8587" y1="35.9156" x2="46.3029" y2="43.4778" gradientUnits="userSpaceOnUse">
<stop stop-color="#FFD465"/>
<stop offset="1" stop-color="#FFAF36"/>
</linearGradient>
<radialGradient id="paint4_radial_71319_46809" cx="0" cy="0" r="1" gradientUnits="userSpaceOnUse" gradientTransform="translate(61.421 28.5167) rotate(137.383) scale(4.40172 4.23486)">
<stop stop-color="#FFD463"/>
<stop offset="1" stop-color="#E68F2B"/>
</radialGradient>
<radialGradient id="paint5_radial_71319_46809" cx="0" cy="0" r="1" gradientUnits="userSpaceOnUse" gradientTransform="translate(59.8699 27.8499) rotate(90) scale(4.14997 5.0647)">
<stop offset="0.796875" stop-color="#E37A42" stop-opacity="0"/>
<stop offset="1" stop-color="#E37A42"/>
</radialGradient>
<radialGradient id="paint6_radial_71319_46809" cx="0" cy="0" r="1" gradientUnits="userSpaceOnUse" gradientTransform="translate(35.9778 48.8202) rotate(122.9) scale(4.25961 3.75098)">
<stop stop-color="#FFD463"/>
<stop offset="1" stop-color="#E68F2B"/>
</radialGradient>
<radialGradient id="paint7_radial_71319_46809" cx="0" cy="0" r="1" gradientUnits="userSpaceOnUse" gradientTransform="translate(34.8699 48.0201) rotate(90) scale(4.97996 3.61764)">
<stop offset="0.796875" stop-color="#E37A42" stop-opacity="0"/>
<stop offset="1" stop-color="#E37A42"/>
</radialGradient>
<radialGradient id="paint8_radial_71319_46809" cx="0" cy="0" r="1" gradientUnits="userSpaceOnUse" gradientTransform="translate(18.6995 28.82) rotate(127.823) scale(4.52768 4.23471)">
<stop stop-color="#FFD463"/>
<stop offset="1" stop-color="#E68F2B"/>
</radialGradient>
<radialGradient id="paint9_radial_71319_46809" cx="0" cy="0" r="1" gradientUnits="userSpaceOnUse" gradientTransform="translate(17.3699 28.02) rotate(90) scale(4.97996 4.34117)">
<stop offset="0.796875" stop-color="#E37A42" stop-opacity="0"/>
<stop offset="1" stop-color="#E37A42"/>
</radialGradient>
<radialGradient id="paint10_radial_71319_46809" cx="0" cy="0" r="1" gradientUnits="userSpaceOnUse" gradientTransform="translate(35.9777 2.82002) rotate(122.9) scale(4.25962 3.75101)">
<stop stop-color="#FFD463"/>
<stop offset="1" stop-color="#E68F2B"/>
</radialGradient>
<radialGradient id="paint11_radial_71319_46809" cx="0" cy="0" r="1" gradientUnits="userSpaceOnUse" gradientTransform="translate(34.8699 2.02004) rotate(90) scale(4.97995 3.61766)">
<stop offset="0.869366" stop-color="#E37A42" stop-opacity="0"/>
<stop offset="1" stop-color="#E37A42"/>
</radialGradient>
<linearGradient id="paint12_linear_71319_46809" x1="38.5962" y1="21.1046" x2="40.7887" y2="23.1786" gradientUnits="userSpaceOnUse">
<stop stop-color="#C1BFC3"/>
<stop offset="1" stop-color="#C1BFC3" stop-opacity="0"/>
</linearGradient>
<linearGradient id="paint13_linear_71319_46809" x1="44.2283" y1="25.1734" x2="42.8612" y2="23.7377" gradientUnits="userSpaceOnUse">
<stop stop-color="#B0A1BF"/>
<stop offset="1" stop-color="#B0A1BF" stop-opacity="0"/>
</linearGradient>
<radialGradient id="paint14_radial_71319_46809" cx="0" cy="0" r="1" gradientUnits="userSpaceOnUse" gradientTransform="translate(45.0487 19.1234) rotate(133.939) scale(2.61067 3.15407)">
<stop offset="0.209653" stop-color="#ECE8F2"/>
<stop offset="1" stop-color="#ECE8F2" stop-opacity="0"/>
</radialGradient>
<linearGradient id="paint15_linear_71319_46809" x1="4.55018" y1="55.1567" x2="6.7242" y2="57.3296" gradientUnits="userSpaceOnUse">
<stop stop-color="#A8A6AD"/>
<stop offset="1" stop-color="#A8A6AD" stop-opacity="0"/>
</linearGradient>
<linearGradient id="paint16_linear_71319_46809" x1="3.07617" y1="62.059" x2="4.78516" y2="59.9399" gradientUnits="userSpaceOnUse">
<stop stop-color="#968FA1"/>
<stop offset="1" stop-color="#968FA1" stop-opacity="0"/>
</linearGradient>
<radialGradient id="paint17_radial_71319_46809" cx="0" cy="0" r="1" gradientUnits="userSpaceOnUse" gradientTransform="translate(6.7242 53.6509) rotate(98.4726) scale(10.6089 10.8303)">
<stop offset="0.661224" stop-color="#8F6EAF" stop-opacity="0"/>
<stop offset="0.918366" stop-color="#8F6EAF"/>
</radialGradient>
</defs>
</svg>
